HIERARCHY
ROOT Hips
{
  OFFSET 5.84602e-005 68.8428 3.50346
  CHANNELS 6 Xposition Yposition Zposition Zrotation Xrotation Yrotation
  JOINT Spine
  {
    OFFSET 0 8.597 -4.6522
    CHANNELS 3 Zrotation Xrotation Yrotation
    JOINT Spine1
    {
      OFFSET 0 7.8454 0.4098
      CHANNELS 3 Zrotation Xrotation Yrotation
      JOINT Spine2
      {
        OFFSET 0 9.7078 -2.1609
        CHANNELS 3 Zrotation Xrotation Yrotation
        JOINT Neck
        {
          OFFSET 0 21.8761 -0.4549
          CHANNELS 3 Zrotation Xrotation Yrotation
          JOINT Head
          {
            OFFSET 0 12.3537 3.3602
            CHANNELS 3 Zrotation Xrotation Yrotation
            End Site
            {
              OFFSET 0.0001 18.9506 0.5657
            }
          }
        }
        JOINT LeftShoulder
        {
          OFFSET 2.2086 21.1115 7.2329
          CHANNELS 3 Zrotation Xrotation Yrotation
          JOINT LeftArm
          {
            OFFSET 13.1193 3.0282 -4.8998
            CHANNELS 3 Zrotation Xrotation Yrotation
            JOINT LeftForeArm
            {
              OFFSET 27.4081 -0.0973053 -0.2375
              CHANNELS 3 Zrotation Xrotation Yrotation
              JOINT LeftHand
              {
                OFFSET 22.8641 0.0662994 -0.1369
                CHANNELS 3 Zrotation Xrotation Yrotation
                JOINT LeftHandIndex1
                {
                  OFFSET 8.8614 0.775009 2.4612
                  CHANNELS 3 Zrotation Xrotation Yrotation
                  JOINT LeftHandIndex2
                  {
                    OFFSET 3.3146 -0.808304 0.5841
                    CHANNELS 3 Zrotation Xrotation Yrotation
                    JOINT LeftHandIndex3
                    {
                      OFFSET 2.2628 -0.552002 0.3989
                      CHANNELS 3 Zrotation Xrotation Yrotation
                      End Site
                      {
                        OFFSET 1.6102 -0.4807 0.2612
                      }
                    }
                  }
                }
                JOINT LeftHandMiddle1
                {
                  OFFSET 8.9937 0.895004 0.2143
                  CHANNELS 3 Zrotation Xrotation Yrotation
                  JOINT LeftHandMiddle2
                  {
                    OFFSET 4.0984 0.0113983 -0.0242
                    CHANNELS 3 Zrotation Xrotation Yrotation
                    JOINT LeftHandMiddle3
                    {
                      OFFSET 2.2716 0.00689697 -0.0138001
                      CHANNELS 3 Zrotation Xrotation Yrotation
                      End Site
                      {
                        OFFSET 2.0404 -0.1441 0.0027
                      }
                    }
                  }
                }
                JOINT LeftHandRing1
                {
                  OFFSET 8.5234 0.597198 -2.0164
                  CHANNELS 3 Zrotation Xrotation Yrotation
                  JOINT LeftHandRing2
                  {
                    OFFSET 3.7188 -0.188293 -0.2328
                    CHANNELS 3 Zrotation Xrotation Yrotation
                    JOINT LeftHandRing3
                    {
                      OFFSET 2.1191 -0.106598 -0.1332
                      CHANNELS 3 Zrotation Xrotation Yrotation
                      End Site
                      {
                        OFFSET 1.8737 -0.2304 -0.0886
                      }
                    }
                  }
                }
                JOINT LeftHandPinky1
                {
                  OFFSET 7.9094 -0.601089 -3.4825
                  CHANNELS 3 Zrotation Xrotation Yrotation
                  JOINT LeftHandPinky2
                  {
                    OFFSET 2.2874 -0.477005 -0.6314
                    CHANNELS 3 Zrotation Xrotation Yrotation
                    JOINT LeftHandPinky3
                    {
                      OFFSET 1.6774 -0.349396 -0.4633
                      CHANNELS 3 Zrotation Xrotation Yrotation
                      End Site
                      {
                        OFFSET 1.4888 -0.4091 -0.3416
                      }
                    }
                  }
                }
                JOINT LeftHandThumb1
                {
                  OFFSET 1.833 -1.3875 1.3896
                  CHANNELS 3 Zrotation Xrotation Yrotation
                  JOINT LeftHandThumb2
                  {
                    OFFSET 3.4129 -1.121 2.5732
                    CHANNELS 3 Zrotation Xrotation Yrotation
                    JOINT LeftHandThumb3
                    {
                      OFFSET 2.2474 -0.804199 1.6192
                      CHANNELS 3 Zrotation Xrotation Yrotation
                      End Site
                      {
                        OFFSET 1.6527 -0.5689 1.1317
                      }
                    }
                  }
                }
              }
            }
          }
        }
        JOINT RightShoulder
        {
          OFFSET -2.2086 21.1115 7.2329
          CHANNELS 3 Zrotation Xrotation Yrotation
          JOINT RightArm
          {
            OFFSET -13.1216 3.0287 -4.9007
            CHANNELS 3 Zrotation Xrotation Yrotation
            JOINT RightForeArm
            {
              OFFSET -27.4081 -0.0973053 -0.2375
              CHANNELS 3 Zrotation Xrotation Yrotation
              JOINT RightHand
              {
                OFFSET -22.8641 0.0664063 -0.1369
                CHANNELS 3 Zrotation Xrotation Yrotation
                JOINT RightHandIndex1
                {
                  OFFSET -8.8614 0.774994 2.4612
                  CHANNELS 3 Zrotation Xrotation Yrotation
                  JOINT RightHandIndex2
                  {
                    OFFSET -3.3146 -0.808304 0.5841
                    CHANNELS 3 Zrotation Xrotation Yrotation
                    JOINT RightHandIndex3
                    {
                      OFFSET -2.2628 -0.552002 0.3989
                      CHANNELS 3 Zrotation Xrotation Yrotation
                      End Site
                      {
                        OFFSET -1.6102 -0.4807 0.2612
                      }
                    }
                  }
                }
                JOINT RightHandMiddle1
                {
                  OFFSET -8.9937 0.894989 0.2143
                  CHANNELS 3 Zrotation Xrotation Yrotation
                  JOINT RightHandMiddle2
                  {
                    OFFSET -4.0984 0.0113983 -0.0242
                    CHANNELS 3 Zrotation Xrotation Yrotation
                    JOINT RightHandMiddle3
                    {
                      OFFSET -2.2716 0.00691223 -0.0138001
                      CHANNELS 3 Zrotation Xrotation Yrotation
                      End Site
                      {
                        OFFSET -2.0404 -0.1441 0.0027
                      }
                    }
                  }
                }
                JOINT RightHandRing1
                {
                  OFFSET -8.5234 0.597198 -2.0164
                  CHANNELS 3 Zrotation Xrotation Yrotation
                  JOINT RightHandRing2
                  {
                    OFFSET -3.7188 -0.188309 -0.2328
                    CHANNELS 3 Zrotation Xrotation Yrotation
                    JOINT RightHandRing3
                    {
                      OFFSET -2.1191 -0.106598 -0.1332
                      CHANNELS 3 Zrotation Xrotation Yrotation
                      End Site
                      {
                        OFFSET -1.8737 -0.2304 -0.0886
                      }
                    }
                  }
                }
                JOINT RightHandPinky1
                {
                  OFFSET -7.9094 -0.601105 -3.4825
                  CHANNELS 3 Zrotation Xrotation Yrotation
                  JOINT RightHandPinky2
                  {
                    OFFSET -2.2874 -0.477005 -0.6314
                    CHANNELS 3 Zrotation Xrotation Yrotation
                    JOINT RightHandPinky3
                    {
                      OFFSET -1.6774 -0.349396 -0.4633
                      CHANNELS 3 Zrotation Xrotation Yrotation
                      End Site
                      {
                        OFFSET -1.4888 -0.4091 -0.3416
                      }
                    }
                  }
                }
                JOINT RightHandThumb1
                {
                  OFFSET -1.833 -1.38751 1.3896
                  CHANNELS 3 Zrotation Xrotation Yrotation
                  JOINT RightHandThumb2
                  {
                    OFFSET -3.41299 -1.12099 2.5732
                    CHANNELS 3 Zrotation Xrotation Yrotation
                    JOINT RightHandThumb3
                    {
                      OFFSET -2.24741 -0.804108 1.6192
                      CHANNELS 3 Zrotation Xrotation Yrotation
                      End Site
                      {
                        OFFSET -1.6527 -0.5689 1.1317
                      }
                    }
                  }
                }
              }
            }
          }
        }
      }
    }
  }
  JOINT RightUpLeg
  {
    OFFSET -9.1966 3.8861 -0.7581
    CHANNELS 3 Zrotation Xrotation Yrotation
    JOINT RightLeg
    {
      OFFSET -0.7359 -41.0265 0
      CHANNELS 3 Zrotation Xrotation Yrotation
      JOINT RightFoot
      {
        OFFSET 0 -40.2855 0
        CHANNELS 3 Zrotation Xrotation Yrotation
        JOINT RightToeBase
        {
          OFFSET 0 -5.6122 11.7359
          CHANNELS 3 Zrotation Xrotation Yrotation
          End Site
          {
            OFFSET 0 0 7.8731
          }
        }
      }
    }
  }
  JOINT LeftUpLeg
  {
    OFFSET 9.1965 3.8864 -0.7581
    CHANNELS 3 Zrotation Xrotation Yrotation
    JOINT LeftLeg
    {
      OFFSET 0.7359 -41.0268 0
      CHANNELS 3 Zrotation Xrotation Yrotation
      JOINT LeftFoot
      {
        OFFSET 0 -40.2855 0
        CHANNELS 3 Zrotation Xrotation Yrotation
        JOINT LeftToeBase
        {
          OFFSET 0 -5.6122 11.7359
          CHANNELS 3 Zrotation Xrotation Yrotation
          End Site
          {
            OFFSET 0 0 7.8731
          }
        }
      }
    }
  }
}
MOTION
Frames:	4
Frame Time:	0.0333333
-16.6117 2.75914 -2.84503 -180 -89.9981 -180 -5.32864 13.3526 -4.65216 -9.92253 27.0534 -8.32985 -9.92253 27.0534 -8.32984 1.95843 -6.67996 -16.0968 10.9396 -30.676 34.9985 0.0062165 -3.75718 -36.4729 -94.9202 -69.5698 -53.9617 -5.64194 57.4298 -79.4947 48.7256 -1.7865 -18.5623 1.26077e-007 1.09724e-007 1.05088e-007 9.93923e-017 3.18055e-015 7.95139e-016 -2.98177e-016 3.18055e-015 1.59028e-015 1.26077e-007 1.09724e-007 1.05088e-007 -0.0146238 -8.81782e-005 8.61707e-007 -3.97569e-016 0 -0 1.26077e-007 1.09724e-007 1.05088e-007 -0.018794 -0.00117812 6.03803e-005 1.32417e-031 4.77083e-015 -1.59028e-015 1.26077e-007 1.09724e-007 1.05088e-007 -0.0122654 -0.00324645 0.000672583 -5.96354e-016 0 -0 1.26077e-007 1.09724e-007 1.05088e-007 9.93923e-017 3.18055e-015 7.95139e-016 -2.98177e-016 3.18055e-015 1.59028e-015 19.1094 -33.1466 -35.2557 48.6717 51.2958 -24.4394 -80.1077 -0.372986 44.7221 -6.4386 6.55692 8.57654 1.39149e-015 -1.59028e-015 3.18055e-015 7.95139e-016 0 -3.18055e-015 9.93923e-016 7.95139e-016 -3.18055e-015 1.39149e-015 -1.59028e-015 3.18055e-015 0.0149973 -9.03253e-005 -1.54877e-006 2.78299e-015 7.95139e-016 6.36111e-015 1.39149e-015 -1.59028e-015 3.18055e-015 0.0189847 -0.00118985 -5.92345e-005 1.39149e-015 2.38542e-015 3.18055e-015 1.39149e-015 -1.59028e-015 3.18055e-015 0.0122804 -0.00325091 -0.000677588 7.95139e-016 2.38542e-015 -3.18055e-015 1.39149e-015 -1.59028e-015 3.18055e-015 7.95139e-016 0 -3.18055e-015 9.93923e-016 7.95139e-016 -3.18055e-015 -78.5355 -21.2854 -65.5989 -159.051 70.3396 153.035 -54.3692 7.08906 65.584 -3.86817e-010 1.26495e-009 -1.97213e-009 15.9895 -57.9953 41.5143 43.111 76.1021 -41.2291 6.43837 19.9943 -12.7531 -8.74817e-007 -3.03589e-006 -7.49651e-007 
-16.6117 2.75913 -2.84503 -180 -89.9981 -180 -5.32604 13.3199 -4.65077 -9.91849 26.9879 -8.32948 -9.91849 26.9879 -8.32949 1.95951 -6.92376 -16.0884 10.8568 -29.9383 34.8347 -0.0406303 -3.58354 -36.4687 -94.9202 -69.5698 -53.9617 -5.64191 57.4298 -79.4947 48.7256 -1.7865 -18.5623 -4.53139e-008 -2.48683e-007 9.47296e-007 9.84623e-008 1.3806e-008 1.20219e-006 7.96351e-008 -1.38193e-007 1.05364e-006 -4.53139e-008 -2.48683e-007 9.47296e-007 -0.0146479 -8.86712e-005 2.46869e-006 7.96433e-008 -1.38328e-007 1.05362e-006 -4.53139e-008 -2.48683e-007 9.47296e-007 -0.0187505 -0.00117602 5.85036e-005 7.96554e-008 -1.38365e-007 1.05362e-006 -4.53139e-008 -2.48683e-007 9.47296e-007 -0.0122313 -0.00323878 0.000675325 7.96703e-008 -1.38304e-007 1.05362e-006 -4.53139e-008 -2.48683e-007 9.47296e-007 9.84623e-008 1.3806e-008 1.20219e-006 7.96351e-008 -1.38193e-007 1.05364e-006 19.1093 -33.1466 -35.2557 48.6717 51.2958 -24.4394 -80.1077 -0.372983 44.7221 -6.36732 6.6456 8.63475 -0 -2.38542e-015 -0 8.96593e-008 1.06813e-007 -1.68589e-006 9.93923e-016 0 -0 -0 -2.38542e-015 -0 0.015007 -9.14604e-005 3.51412e-007 4.21475e-007 -5.81214e-008 2.24221e-008 -0 -2.38542e-015 -0 0.0189967 -0.00119126 -5.91394e-005 4.21476e-007 -5.81206e-008 2.24201e-008 -0 -2.38542e-015 -0 0.0122414 -0.00324025 -0.000675877 4.21476e-007 -5.81202e-008 2.2409e-008 -0 -2.38542e-015 -0 8.96593e-008 1.06813e-007 -1.68589e-006 9.93923e-016 0 -0 -78.4985 -21.3385 -65.5399 -159.05 70.3395 153.035 -54.302 7.12876 65.5604 -3.97007e-010 1.32438e-009 -2.0077e-009 15.9895 -57.9954 41.5143 43.111 76.1021 -41.2292 6.43837 19.9943 -12.7531 3.18055e-015 9.54166e-015 3.18055e-015 
-16.6117 2.75912 -2.84503 -180 -89.9981 -180 -5.32362 13.2895 -4.64945 -9.91472 26.9268 -8.32914 -9.91472 26.9268 -8.32914 1.96037 -7.15187 -16.0805 10.7819 -29.2488 34.6831 -0.0842648 -3.42182 -36.4645 -94.9202 -69.5698 -53.9617 -5.64195 57.4298 -79.4947 48.7256 -1.78649 -18.5623 3.76666e-008 3.03962e-007 2.97132e-007 -3.97569e-016 3.18055e-015 -7.95139e-016 1.17211e-007 1.65641e-007 1.35076e-006 3.76666e-008 3.03962e-007 2.97132e-007 -0.0146139 -8.83559e-005 3.94769e-007 1.17217e-007 1.65469e-007 1.35078e-006 3.76666e-008 3.03962e-007 2.97132e-007 -0.0187503 -0.0011747 5.96094e-005 1.17232e-007 1.65421e-007 1.35078e-006 3.76666e-008 3.03962e-007 2.97132e-007 -0.0122611 -0.00324508 0.000673598 1.17255e-007 1.65497e-007 1.35077e-006 3.76666e-008 3.03962e-007 2.97132e-007 -3.97569e-016 3.18055e-015 -7.95139e-016 1.17211e-007 1.65641e-007 1.35076e-006 19.1093 -33.1465 -35.2557 48.6717 51.2958 -24.4394 -80.1077 -0.372989 44.7221 -6.30099 6.72828 8.68886 1.78906e-015 -2.38542e-015 3.18055e-015 -5.82971e-008 -4.21459e-007 -2.66927e-008 4.96962e-015 0 -3.18055e-015 1.78906e-015 -2.38542e-015 3.18055e-015 0.0150052 -9.22066e-005 3.8039e-007 -4.21462e-007 5.82942e-008 -2.22345e-008 1.78906e-015 -2.38542e-015 3.18055e-015 0.0189986 -0.00119137 -6.0824e-005 -3.99812e-007 3.38171e-007 1.75148e-007 1.78906e-015 -2.38542e-015 3.18055e-015 0.0122602 -0.00324603 -0.00067809 -4.21462e-007 5.8293e-008 -2.22214e-008 1.78906e-015 -2.38542e-015 3.18055e-015 -5.82971e-008 -4.21459e-007 -2.66927e-008 4.96962e-015 0 -3.18055e-015 -78.4765 -21.3696 -65.4895 -159.032 70.3366 153.038 -54.2395 7.16575 65.5384 1.71377e-018 0 9.31803e-018 15.9895 -57.9954 41.5143 43.1109 76.1021 -41.2291 6.43837 19.9944 -12.7531 5.29669e-031 6.36111e-015 -4.77083e-015 
-16.6117 2.75912 -2.84503 -180 -89.9981 -180 -5.32119 13.259 -4.64813 -9.91095 26.8658 -8.32877 -9.91095 26.8658 -8.32877 1.96138 -7.37966 -16.0727 10.7095 -28.5581 34.5334 -0.127884 -3.26013 -36.4603 -94.9202 -69.5698 -53.9617 -5.64193 57.4298 -79.4947 48.7256 -1.78649 -18.5623 -1.88392e-008 -1.51963e-007 -1.48585e-007 9.93923e-017 0 -7.95139e-016 -1.88392e-008 -1.51963e-007 -1.48585e-007 -1.88392e-008 -1.51963e-007 -1.48585e-007 -0.0145947 -8.8151e-005 -6.1455e-007 -1.88386e-008 -1.51944e-007 -1.48604e-007 -1.88392e-008 -1.51963e-007 -1.48585e-007 -0.0187604 -0.00117578 5.87514e-005 -1.88399e-008 -1.51939e-007 -1.48609e-007 -1.88392e-008 -1.51963e-007 -1.48585e-007 -0.0122906 -0.00325318 0.000678426 -1.88437e-008 -1.51947e-007 -1.48601e-007 -1.88392e-008 -1.51963e-007 -1.48585e-007 9.93923e-017 0 -7.95139e-016 -1.88392e-008 -1.51963e-007 -1.48585e-007 19.1093 -33.1466 -35.2557 48.6717 51.2958 -24.4394 -80.1077 -0.372991 44.7221 -6.23472 6.81101 8.74287 8.6163e-007 1.56672e-007 2.46738e-007 2.96884e-008 -3.14715e-007 -1.71246e-006 9.31049e-007 -1.02103e-008 -1.6417e-006 8.6163e-007 1.56672e-007 2.46738e-007 0.0150003 -9.11194e-005 -1.36839e-006 9.31085e-007 -1.04255e-008 -1.6417e-006 8.6163e-007 1.56672e-007 2.46738e-007 0.0189937 -0.00119093 -6.08334e-005 9.31079e-007 -1.0485e-008 -1.64171e-006 8.6163e-007 1.56672e-007 2.46738e-007 0.0122637 -0.00324685 -0.000680025 9.31033e-007 -1.03887e-008 -1.64173e-006 8.6163e-007 1.56672e-007 2.46738e-007 2.96884e-008 -3.14715e-007 -1.71246e-006 9.31049e-007 -1.02103e-008 -1.6417e-006 -78.4397 -21.4224 -65.4337 -159.035 70.337 153.038 -54.1769 7.20268 65.5163 -5.76311e-020 0 -3.10601e-018 15.9895 -57.9953 41.5143 43.1109 76.1021 -41.2291 6.43838 19.9944 -12.7531 7.64891e-007 6.34371e-008 -3.63675e-007 
